<svg width="512" height="512" viewBox="0 0 512 512" xmlns="http://www.w3.org/2000/svg" role="img" aria-label="Dictionary icon">
  <rect width="512" height="512" rx="96" fill="#0B4C75"/>
  <path d="M168 140h176c17.7 0 32 14.3 32 32v168c0 17.7-14.3 32-32 32H168c-17.7 0-32-14.3-32-32V172c0-17.7 14.3-32 32-32z" fill="#FFFFFF" opacity="0.95"/>
  <path d="M204 196h104c8.8 0 16 7.2 16 16v8c0 8.8-7.2 16-16 16H204c-8.8 0-16-7.2-16-16v-8c0-8.8 7.2-16 16-16z" fill="#0B4C75"/>
  <path d="M204 256h136c8.8 0 16 7.2 16 16v8c0 8.8-7.2 16-16 16H204c-8.8 0-16-7.2-16-16v-8c0-8.8 7.2-16 16-16z" fill="#0B4C75"/>
  <path d="M204 316h88c8.8 0 16 7.2 16 16v8c0 8.8-7.2 16-16 16h-88c-8.8 0-16-7.2-16-16v-8c0-8.8 7.2-16 16-16z" fill="#0B4C75"/>
</svg>
